<?xml version="1.0" ?><svg data-name="Your Icons" id="Your_Icons" viewBox="0 0 48 48" xmlns="http://www.w3.org/2000/svg"><title/><circle cx="24" cy="14" r="1.5"/><path d="M26.77,10a4,4,0,0,0-5.65,0l-8,7.91A4,4,0,0,0,12,20.7V36.87a4,4,0,0,0,4,4H32a4,4,0,0,0,4-4V20.71a3.91,3.91,0,0,0-1.18-2.81ZM34,36.87a2,2,0,0,1-2,2H16a2,2,0,0,1-2-2V20.7a1.94,1.94,0,0,1,.57-1.38l8-7.91A2,2,0,0,1,24,10.83a2,2,0,0,1,1.42.58l8.05,7.92A2,2,0,0,1,34,20.71Z"/><path d="M28.79,22.29l-10.5,10.5a1,1,0,0,0,0,1.42,1,1,0,0,0,1.42,0l10.5-10.5a1,1,0,0,0-1.42-1.42Z"/><path d="M20.5,28a3,3,0,1,0-3-3A3,3,0,0,0,20.5,28Zm0-4a1,1,0,1,1-1,1A1,1,0,0,1,20.5,24Z"/><path d="M27.5,29a3,3,0,1,0,3,3A3,3,0,0,0,27.5,29Zm0,4a1,1,0,1,1,1-1A1,1,0,0,1,27.5,33Z"/></svg>