<?xml version="1.0" encoding="utf-8"?>
<!-- Generator: Adobe Illustrator 24.2.3, SVG Export Plug-In . SVG Version: 6.00 Build 0)  -->
<svg version="1.1" id="Layer_1" xmlns="http://www.w3.org/2000/svg" xmlns:xlink="http://www.w3.org/1999/xlink" x="0px" y="0px"
	 viewBox="0 0 26.4 23.5" style="enable-background:new 0 0 26.4 23.5;" xml:space="preserve">
<style type="text/css">
	.st0{fill:#231F20;}
</style>
<g id="yurek" transform="translate(-34.17 -836.027)">
	<g id="Icon_feather-heart" transform="translate(34.58 835.112)">
		<path class="st0" d="M18.2,2.7c-1.5,0-3.1,0.6-4.2,1.8l-1.2,1.2l-1.2-1.2c-1.2-1.2-2.7-1.8-4.2-1.8S4.3,3.3,3.2,4.5
			c-2.3,2.3-2.3,6.1,0,8.5l1.2,1.2l8.5,8.5l8.5-8.5l1.2-1.2c2.3-2.3,2.3-6.1,0-8.5l0,0C21.3,3.3,19.7,2.7,18.2,2.7 M18.2,0.9
			c2.1,0,4.1,0.8,5.5,2.3C25.2,4.7,26,6.6,26,8.7s-0.8,4.1-2.3,5.5l-1.2,1.2L14,23.9c-0.3,0.3-0.8,0.5-1.3,0.5s-1-0.2-1.3-0.5
			L3,15.4l-1.2-1.2c-3.1-3.1-3.1-8,0-11.1c1.5-1.5,3.4-2.3,5.5-2.3c2,0,3.9,0.8,5.4,2.2C14.3,1.7,16.2,0.9,18.2,0.9z"/>
	</g>
	<path id="Path_12" class="st0" d="M57.6,844.2c0.1-1.4-0.3-2.7-1.2-3.7c-0.7-0.8-1.6-1.3-2.6-1.5c0,0,0,0-0.1,0l0,0l0,0l0,0
		c-0.3,0-0.5,0.2-0.5,0.5l0,0l0,0l0,0l0,0c0,0.3,0.2,0.5,0.5,0.6l0,0c0,0,0,0,0.1,0c0.8,0.2,1.5,0.6,2,1.2c0.7,0.9,1,1.9,0.9,3
		c0,0.3,0.2,0.5,0.5,0.5l0,0C57.3,844.8,57.5,844.5,57.6,844.2C57.6,844.3,57.6,844.2,57.6,844.2z"/>
</g>
</svg>
