<svg id="Menu_Icon" data-name="Menu Icon" xmlns="http://www.w3.org/2000/svg" width="20" height="14" viewBox="0 0 20 14">
  <path id="Rectangle_2" data-name="Rectangle 2" d="M1,0H13a1,1,0,0,1,0,2H1A1,1,0,0,1,1,0Z" transform="translate(3)" fill="#fff"/>
  <path id="Rectangle_2_Copy_2" data-name="Rectangle 2 Copy 2" d="M1,0H13a1,1,0,0,1,0,2H1A1,1,0,0,1,1,0Z" transform="translate(3 12)" fill="#fff"/>
  <path id="Rectangle_2_Copy" data-name="Rectangle 2 Copy" d="M1,0H19a1,1,0,0,1,0,2H1A1,1,0,0,1,1,0Z" transform="translate(0 6)" fill="#fff"/>
</svg>
