<?xml version="1.0" encoding="utf-8"?>
<!-- Generator: Adobe Illustrator 24.2.3, SVG Export Plug-In . SVG Version: 6.00 Build 0)  -->
<svg version="1.1" id="Outline" xmlns="http://www.w3.org/2000/svg" xmlns:xlink="http://www.w3.org/1999/xlink" x="0px" y="0px"
	 viewBox="0 0 24 24" style="enable-background:new 0 0 24 24;" xml:space="preserve">
<path d="M23.7,22.2l-3.6-3.6c4.2-5.2,3.1-13-2.6-16.7c-4.4-2.8-10.3-2.2-14,1.4C-1.5,8-1,15.9,4.2,20.1c4.2,3.4,10.2,3.4,14.3,0
	l3.5,3.5c0.5,0.5,1.2,0.5,1.7,0c0,0,0,0,0,0C24.1,23.2,24.1,22.6,23.7,22.2z M11.3,20.4c-5,0-9-4.1-9-9.1s4-9.1,9-9.1s9,4.1,9,9.1
	C20.4,16.4,16.3,20.4,11.3,20.4z"/>
</svg>
