<?xml version="1.0" encoding="utf-8"?>
<!-- Generator: Adobe Illustrator 24.2.3, SVG Export Plug-In . SVG Version: 6.00 Build 0)  -->
<svg version="1.1" id="Layer_1" xmlns="http://www.w3.org/2000/svg" xmlns:xlink="http://www.w3.org/1999/xlink" x="0px" y="0px"
	 viewBox="0 0 24 24" style="enable-background:new 0 0 24 24;" xml:space="preserve">
<style type="text/css">
	.st0{fill:none;stroke:#231F20;}
</style>
<path d="M24,10c0-0.1,0-0.1,0-0.2l-1.3-5.9C22.2,1.6,20.1,0,17.8,0H6.2C3.9,0,1.8,1.6,1.3,3.9L0,9.8C0,9.9,0,9.9,0,10v1
	c0,1,0.4,1.9,1,2.6V19c0,2.8,2.2,5,5,5h12c2.8,0,5-2.2,5-5v-5.4c0.6-0.7,1-1.7,1-2.6V10z M2,10.1l1.3-5.8C3.6,3,4.8,2,6.2,2H7v3
	c0,0.6,0.4,1,1,1s1-0.4,1-1V2h6v3c0,0.6,0.4,1,1,1s1-0.4,1-1V2h0.8c1.4,0,2.6,1,2.9,2.3l1.3,5.8V11c0,1.1-0.9,2-2,2h-1
	c-1.1,0-2-0.9-2-2c0-0.6-0.4-1-1-1s-1,0.4-1,1c0,1.1-0.9,2-2,2h-2c-1.1,0-2-0.9-2-2c0-0.6-0.4-1-1-1s-1,0.4-1,1c0,1.1-0.9,2-2,2H4
	c-1.1,0-2-0.9-2-2V10.1z M18,22H6c-1.7,0-3-1.3-3-3v-4.1C3.3,15,3.7,15,4,15h1c1.1,0,2.2-0.5,3-1.4c0.8,0.9,1.9,1.4,3,1.4h2
	c1.1,0,2.2-0.5,3-1.4c0.8,0.9,1.9,1.4,3,1.4h1c0.3,0,0.7,0,1-0.1V19C21,20.7,19.7,22,18,22z"/>
<path d="M9,22.8"/>
<g>
	<path class="st0" d="M9,23.5L9,23.5v-5.4c0-0.9,0.7-1.6,1.6-1.6h2.9c0.9,0,1.5,0.7,1.5,1.5v5.5H9z"/>
</g>
</svg>
